<svg width="100%" height="100%" viewBox="0 0 45 43" fill="none" xmlns="http://www.w3.org/2000/svg">
<path d="M6.16675 0V6.125H0.041748V10.2083H6.16675V16.3333H10.2501V10.2083H16.3751V6.125H10.2501V0H6.16675ZM18.4167 6.125V12.25H12.2917V18.375H6.16675V38.7917C6.16675 39.8746 6.59696 40.9132 7.36273 41.679C8.1285 42.4448 9.16711 42.875 10.2501 42.875H38.8334C41.0997 42.875 42.9167 41.0579 42.9167 38.7917V36.75H24.5417C23.4588 36.75 22.4202 36.3198 21.6544 35.554C20.8886 34.7882 20.4584 33.7496 20.4584 32.6667V16.3333C20.4584 15.2504 20.8886 14.2118 21.6544 13.446C22.4202 12.6802 23.4588 12.25 24.5417 12.25H42.9167V10.2083C42.9167 9.12537 42.4865 8.08675 41.7208 7.32098C40.955 6.55521 39.9164 6.125 38.8334 6.125H18.4167ZM24.5417 16.3333V32.6667H44.9584V16.3333H24.5417ZM32.7084 21.4375C34.403 21.4375 35.7709 22.8054 35.7709 24.5C35.7709 26.1946 34.403 27.5625 32.7084 27.5625C31.0138 27.5625 29.6459 26.1946 29.6459 24.5C29.6459 22.8054 31.0138 21.4375 32.7084 21.4375Z" fill="currentColor"/>
</svg>
